# Blender v2.69 (sub 0) OBJ File: 'log.blend'
# www.blender.org
o Cylinder
v 0.000000 -0.200000 -0.100000
v 0.000000 0.200000 -0.100000
v 0.019509 -0.200000 -0.098079
v 0.019509 0.200000 -0.098079
v 0.038268 -0.200000 -0.092388
v 0.038268 0.200000 -0.092388
v 0.055557 -0.200000 -0.083147
v 0.055557 0.200000 -0.083147
v 0.070711 -0.200000 -0.070711
v 0.070711 0.200000 -0.070711
v 0.083147 -0.200000 -0.055557
v 0.083147 0.200000 -0.055557
v 0.092388 -0.200000 -0.038268
v 0.092388 0.200000 -0.038268
v 0.098079 -0.200000 -0.019509
v 0.098079 0.200000 -0.019509
v 0.100000 -0.200000 -0.000000
v 0.100000 0.200000 -0.000000
v 0.098079 -0.200000 0.019509
v 0.098079 0.200000 0.019509
v 0.092388 -0.200000 0.038268
v 0.092388 0.200000 0.038268
v 0.083147 -0.200000 0.055557
v 0.083147 0.200000 0.055557
v 0.070711 -0.200000 0.070711
v 0.070711 0.200000 0.070711
v 0.055557 -0.200000 0.083147
v 0.055557 0.200000 0.083147
v 0.038268 -0.200000 0.092388
v 0.038268 0.200000 0.092388
v 0.019509 -0.200000 0.098079
v 0.019509 0.200000 0.098079
v -0.000000 -0.200000 0.100000
v -0.000000 0.200000 0.100000
v -0.019509 -0.200000 0.098079
v -0.019509 0.200000 0.098079
v -0.038268 -0.200000 0.092388
v -0.038268 0.200000 0.092388
v -0.055557 -0.200000 0.083147
v -0.055557 0.200000 0.083147
v -0.070711 -0.200000 0.070711
v -0.070711 0.200000 0.070711
v -0.083147 -0.200000 0.055557
v -0.083147 0.200000 0.055557
v -0.092388 -0.200000 0.038268
v -0.092388 0.200000 0.038268
v -0.098079 -0.200000 0.019509
v -0.098079 0.200000 0.019509
v -0.100000 -0.200000 -0.000000
v -0.100000 0.200000 -0.000000
v -0.098079 -0.200000 -0.019509
v -0.098079 0.200000 -0.019509
v -0.092388 -0.200000 -0.038268
v -0.092388 0.200000 -0.038268
v -0.083147 -0.200000 -0.055557
v -0.083147 0.200000 -0.055557
v -0.070711 -0.200000 -0.070711
v -0.070711 0.200000 -0.070711
v -0.055557 -0.200000 -0.083147
v -0.055557 0.200000 -0.083147
v -0.038268 -0.200000 -0.092388
v -0.038268 0.200000 -0.092388
v -0.019509 -0.200000 -0.098079
v -0.019509 0.200000 -0.098079
vt 0.892152 0.420943
vt 0.638046 0.593279
vt 0.878171 0.416055
vt 0.625650 0.588390
vt 0.864957 0.411081
vt 0.612348 0.583417
vt 0.852670 0.406213
vt 0.598292 0.578549
vt 0.841585 0.401638
vt 0.583587 0.573974
vt 0.832232 0.397532
vt 0.568318 0.569867
vt 0.825763 0.394052
vt 0.552571 0.566387
vt 0.825114 0.391332
vt 0.536437 0.563667
vt 0.839935 0.389476
vt 0.520017 0.561812
vt 0.914789 0.388557
vt 0.503424 0.560892
vt 1.091553 0.388609
vt 0.091553 0.388609
vt 0.486777 0.560944
vt 0.155068 0.389630
vt 0.470197 0.561966
vt 0.167247 0.391582
vt 0.453803 0.563917
vt 0.165721 0.394388
vt 0.437705 0.566724
vt 0.158854 0.397942
vt 0.422005 0.570277
vt 0.149278 0.402106
vt 0.406792 0.574442
vt 0.138046 0.406721
vt 0.392152 0.579057
vt 0.125650 0.411610
vt 0.378171 0.583945
vt 0.112348 0.416583
vt 0.364957 0.588919
vt 0.098292 0.421451
vt 0.352670 0.593787
vt 0.083587 0.426026
vt 0.341585 0.598362
vt 0.068318 0.430133
vt 0.332232 0.602468
vt 0.052571 0.433613
vt 0.325763 0.605948
vt 0.036437 0.436333
vt 0.325114 0.608668
vt 0.020017 0.438188
vt 0.339935 0.610524
vt 0.003424 0.439108
vt 1.003424 0.439108
vt 1.414790 0.611443
vt 0.986777 0.439056
vt 0.591554 0.611391
vt 0.970197 0.438034
vt 0.655068 0.610370
vt 0.953803 0.436083
vt 0.667247 0.608418
vt 0.937705 0.433276
vt 0.665721 0.605612
vt 0.922005 0.429723
vt 0.906792 0.425558
vt 0.649278 0.597894
vt 0.658854 0.602058
vt 0.414790 0.611443
vt 1.155068 0.389630
vt 1.167247 0.391582
vt 1.165721 0.394388
vt 1.158854 0.397942
vt 1.052571 0.433613
vt 1.083586 0.426026
vt 1.068318 0.430133
vt 1.098292 0.421451
vt 1.112348 0.416583
vt 1.125650 0.411610
vt 1.036437 0.436333
vt 1.020017 0.438188
vt 1.138046 0.406721
vt 1.149278 0.402106
vn 0.098018 0.000000 -0.995185
vn 0.290285 0.000000 -0.956940
vn 0.471397 0.000000 -0.881921
vn 0.634393 0.000000 -0.773011
vn 0.773010 0.000000 -0.634393
vn 0.881921 0.000000 -0.471397
vn 0.956940 0.000000 -0.290285
vn 0.995185 0.000000 -0.098017
vn 0.995185 0.000000 0.098017
vn 0.956940 0.000000 0.290285
vn 0.881921 0.000000 0.471397
vn 0.773010 0.000000 0.634393
vn 0.634393 0.000000 0.773010
vn 0.471396 0.000000 0.881921
vn 0.290283 0.000000 0.956941
vn 0.098017 0.000000 0.995185
vn -0.098019 0.000000 0.995184
vn -0.290284 0.000000 0.956940
vn -0.471397 0.000000 0.881921
vn -0.634394 0.000000 0.773010
vn -0.773011 0.000000 0.634392
vn -0.881921 0.000000 0.471396
vn -0.956941 0.000000 0.290284
vn -0.995185 0.000000 0.098016
vn -0.995185 0.000000 -0.098018
vn -0.956940 0.000000 -0.290286
vn -0.881921 0.000000 -0.471398
vn -0.773010 0.000000 -0.634394
vn -0.634392 0.000000 -0.773011
vn -0.471396 0.000000 -0.881922
vn 0.000000 1.000000 0.000000
vn -0.098017 0.000000 -0.995185
vn -0.290283 0.000000 -0.956941
vn 0.000000 -1.000000 -0.000012
vn 0.098017 0.000000 -0.995185
vn 0.290284 0.000000 -0.956940
vn 0.634393 0.000000 -0.773010
vn 0.881921 0.000000 -0.471396
vn 0.471397 0.000000 0.881921
vn 0.290285 0.000000 0.956940
vn -0.098017 0.000000 0.995185
vn -0.290286 0.000000 0.956940
vn -0.634393 0.000000 0.773010
vn -0.773011 0.000000 0.634393
vn -0.881922 0.000000 0.471396
vn -0.956941 0.000000 0.290283
vn -0.471395 0.000000 -0.881922
vn 0.000000 1.000000 0.000008
vn 0.000000 1.000000 0.000004
vn 0.000000 1.000000 -0.000005
vn 0.000000 1.000000 0.000001
vn 0.000000 1.000000 -0.000006
vn 0.000000 1.000000 0.000003
vn 0.000000 1.000000 -0.000002
vn 0.000000 1.000000 -0.000001
vn 0.000000 1.000000 -0.000003
vn 0.000000 1.000000 0.000002
vn 0.000000 -1.000000 0.000008
vn 0.000000 -1.000000 0.000000
vn 0.000000 -1.000000 -0.000001
vn 0.000000 -1.000000 -0.000003
vn 0.000000 -1.000000 0.000004
vn 0.000000 -1.000000 0.000003
s off
f 1/1/1 2/2/1 3/3/1
f 3/3/2 4/4/2 5/5/2
f 5/5/3 6/6/3 7/7/3
f 7/7/4 8/8/4 9/9/4
f 9/9/5 10/10/5 11/11/5
f 11/11/6 12/12/6 13/13/6
f 13/13/7 14/14/7 15/15/7
f 15/15/8 16/16/8 17/17/8
f 17/17/9 18/18/9 19/19/9
f 19/19/10 20/20/10 21/21/10
f 21/22/11 22/23/11 23/24/11
f 23/24/12 24/25/12 25/26/12
f 25/26/13 26/27/13 27/28/13
f 27/28/14 28/29/14 29/30/14
f 29/30/15 30/31/15 31/32/15
f 31/32/16 32/33/16 33/34/16
f 33/34/17 34/35/17 35/36/17
f 35/36/18 36/37/18 37/38/18
f 37/38/19 38/39/19 39/40/19
f 39/40/20 40/41/20 41/42/20
f 41/42/21 42/43/21 43/44/21
f 43/44/22 44/45/22 45/46/22
f 45/46/23 46/47/23 47/48/23
f 47/48/24 48/49/24 49/50/24
f 49/50/25 50/51/25 51/52/25
f 51/53/26 52/54/26 53/55/26
f 53/55/27 54/56/27 55/57/27
f 55/57/28 56/58/28 57/59/28
f 57/59/29 58/60/29 59/61/29
f 59/61/30 60/62/30 61/63/30
f 4/4/31 2/2/31 6/6/31
f 63/64/32 64/65/32 1/1/32
f 61/63/33 62/66/33 63/64/33
f 1/1/34 3/3/34 63/64/34
f 2/2/35 4/4/35 3/3/35
f 4/4/36 6/6/36 5/5/36
f 6/6/3 8/8/3 7/7/3
f 8/8/37 10/10/37 9/9/37
f 10/10/5 12/12/5 11/11/5
f 12/12/38 14/14/38 13/13/38
f 14/14/7 16/16/7 15/15/7
f 16/16/8 18/18/8 17/17/8
f 18/18/9 20/20/9 19/19/9
f 20/20/10 22/23/10 21/21/10
f 22/23/11 24/25/11 23/24/11
f 24/25/12 26/27/12 25/26/12
f 26/27/13 28/29/13 27/28/13
f 28/29/39 30/31/39 29/30/39
f 30/31/40 32/33/40 31/32/40
f 32/33/16 34/35/16 33/34/16
f 34/35/41 36/37/41 35/36/41
f 36/37/42 38/39/42 37/38/42
f 38/39/19 40/41/19 39/40/19
f 40/41/43 42/43/43 41/42/43
f 42/43/44 44/45/44 43/44/44
f 44/45/45 46/47/45 45/46/45
f 46/47/46 48/49/46 47/48/46
f 48/49/24 50/51/24 49/50/24
f 50/51/25 52/67/25 51/52/25
f 52/54/26 54/56/26 53/55/26
f 54/56/27 56/58/27 55/57/27
f 56/58/28 58/60/28 57/59/28
f 58/60/29 60/62/29 59/61/29
f 60/62/47 62/66/47 61/63/47
f 2/2/48 64/65/48 6/6/48
f 64/65/49 62/66/49 6/6/49
f 62/66/50 60/62/50 6/6/50
f 60/62/31 58/60/31 6/6/31
f 58/60/31 56/58/31 6/6/31
f 56/58/31 54/56/31 6/6/31
f 54/56/31 52/67/31 6/6/31
f 52/67/31 50/51/31 6/6/31
f 50/51/31 48/49/31 6/6/31
f 48/49/51 46/47/51 6/6/51
f 46/47/31 44/45/31 6/6/31
f 26/27/31 30/31/31 28/29/31
f 26/27/52 32/33/52 30/31/52
f 8/8/52 12/12/52 10/10/52
f 8/8/53 14/14/53 12/12/53
f 6/6/54 14/14/54 8/8/54
f 6/6/55 44/45/55 14/14/55
f 32/33/52 36/37/52 34/35/52
f 26/27/31 36/37/31 32/33/31
f 24/25/31 36/37/31 26/27/31
f 24/25/53 38/39/53 36/37/53
f 24/25/56 40/41/56 38/39/56
f 42/43/57 40/41/57 24/25/57
f 44/45/51 42/43/51 24/25/51
f 44/45/31 24/25/31 22/23/31
f 44/45/55 22/23/55 20/20/55
f 44/45/57 20/20/57 18/18/57
f 14/14/31 44/45/31 16/16/31
f 44/45/55 18/18/55 16/16/55
f 64/65/32 2/2/32 1/1/32
f 62/66/33 64/65/33 63/64/33
f 3/3/58 5/5/58 63/64/58
f 5/5/59 7/7/59 63/64/59
f 7/7/59 9/9/59 63/64/59
f 9/9/59 11/11/59 63/64/59
f 11/11/59 13/13/59 63/64/59
f 13/13/59 15/15/59 63/64/59
f 15/15/59 17/17/59 63/64/59
f 17/17/59 19/19/59 63/64/59
f 19/19/59 21/21/59 63/64/59
f 21/21/59 23/68/59 63/64/59
f 23/68/59 25/69/59 63/64/59
f 25/69/59 27/70/59 29/71/59
f 63/64/59 25/69/59 29/71/59
f 45/72/59 41/73/59 43/74/59
f 45/72/59 39/75/59 41/73/59
f 45/72/60 37/76/60 39/75/60
f 45/72/61 35/77/61 37/76/61
f 47/78/62 35/77/62 45/72/62
f 49/79/59 35/77/59 47/78/59
f 57/59/63 53/55/63 55/57/63
f 57/59/59 51/53/59 53/55/59
f 59/61/59 51/53/59 57/59/59
f 59/61/59 49/79/59 51/53/59
f 59/61/59 35/77/59 49/79/59
f 59/61/59 33/80/59 35/77/59
f 61/63/59 63/64/59 29/71/59
f 61/63/59 29/71/59 31/81/59
f 59/61/59 61/63/59 33/80/59
f 61/63/59 31/81/59 33/80/59
