# Blender v2.69 (sub 0) OBJ File: 'SkyBox.blend'
# www.blender.org
v -134.718964 239.348724 134.718948
v -134.718964 239.348724 -134.718964
v 134.718979 239.348724 -134.718933
v 134.718918 239.348724 134.719009
v -134.719025 -30.089190 134.718887
v -134.718872 -30.089190 -134.719040
v 134.719009 -30.089190 -134.718918
v 134.718948 -30.089190 134.718964
vt 0.251352 0.997063
vt 0.498056 0.997342
vt 0.251559 0.673210
vt 0.249488 -0.000294
vt 0.249261 0.333462
vt 0.500791 0.000009
vt 0.000061 0.666800
vt 0.249496 0.666638
vt -0.000060 0.334295
vt 0.250043 0.667347
vt 0.501309 0.666909
vt 0.249562 0.336196
vt 0.502229 0.666384
vt 0.750745 0.666384
vt 0.502229 0.335486
vt 1.000146 0.334021
vt 0.750237 0.333935
vt 1.000082 0.666659
vt 0.498262 0.673489
vt 0.500564 0.333765
vt 0.249375 0.334134
vt 0.500828 0.335757
vt 0.750745 0.335486
vt 0.750173 0.666573
vn 0.000000 1.000000 0.000000
vn 0.000000 -1.000000 -0.000000
vn -1.000000 0.000000 0.000000
vn 0.000000 0.000000 -1.000000
vn 1.000000 0.000000 0.000000
vn -0.000000 -0.000000 1.000000
vn -1.000000 -0.000000 -0.000001
s off
f 1/1/1 4/2/1 2/3/1
f 5/4/2 6/5/2 8/6/2
f 1/7/3 2/8/3 5/9/3
f 2/10/4 3/11/4 6/12/4
f 3/13/5 4/14/5 7/15/5
f 5/16/6 8/17/6 1/18/6
f 4/2/1 3/19/1 2/3/1
f 6/5/2 7/20/2 8/6/2
f 2/8/7 6/21/7 5/9/7
f 3/11/4 7/22/4 6/12/4
f 4/14/5 8/23/5 7/15/5
f 8/17/6 4/24/6 1/18/6
